<svg id="Layer_1" height="512" viewBox="0 0 512 512" width="512" xmlns="http://www.w3.org/2000/svg" data-name="Layer 1"><path d="m415.59 119.45-15.05 16.21a202.436 202.436 0 0 1 53.325 187.02 56.639 56.639 0 0 1 12.135 35.18v.14h.29a224.872 224.872 0 0 0 -50.7-238.55z" fill="#b0b5ca"/><path d="m453.9 322.68a56.668 56.668 0 0 1 12.17 35.18v31.23a56.947 56.947 0 0 1 -56.95 56.95h-2.08v-145.13h2.08a56.805 56.805 0 0 1 44.78 21.77z" fill="#baabd4"/><path d="m58.1 322.68a56.805 56.805 0 0 1 44.78-21.77h2.08v145.13h-2.08a56.947 56.947 0 0 1 -56.95-56.95v-31.23a56.668 56.668 0 0 1 12.17-35.18z" fill="#baabd4"/><path d="m111.46 135.66-15.05-16.21a224.872 224.872 0 0 0 -50.7 238.55h.29v-.14a56.639 56.639 0 0 1 12.135-35.18 202.623 202.623 0 0 1 53.325-187.02z" fill="#b0b5ca"/><path d="m409.04 446.04v.14a25.09 25.09 0 0 1 -50.18 0v-145.41a25.09 25.09 0 0 1 50.18 0z" fill="#978cac"/><path d="m153.14 300.77v145.41a25.09 25.09 0 0 1 -50.18 0v-145.41a25.09 25.09 0 1 1 50.18 0z" fill="#978cac"/><path d="m407.99 95.84a23.238 23.238 0 0 1 7.6 23.6s.01 0 0 .01a23.226 23.226 0 0 1 -37.38 12.03 190.687 190.687 0 0 0 -244.42 0 23.225 23.225 0 0 1 -37.38-12.03c-.01-.01 0-.01 0-.01a23.238 23.238 0 0 1 7.6-23.6 237.145 237.145 0 0 1 303.98 0z" fill="#7d8696"/><path d="m75.93 389.09v-31.23a57 57 0 0 1 29.03-49.643v-7.307h-2.08a56.959 56.959 0 0 0 -56.95 56.95v31.23a56.947 56.947 0 0 0 56.95 56.95h2.08v-7.317a56.918 56.918 0 0 1 -29.03-49.633z" fill="#988ead"/><path d="m131.46 125.66a23.235 23.235 0 0 1 -15.05-16.21c-.01-.01 0-.01 0-.01a23.238 23.238 0 0 1 7.6-23.6 236.122 236.122 0 0 1 36.038-24.807 236.573 236.573 0 0 0 -56.038 34.807 23.238 23.238 0 0 0 -7.6 23.6s-.01 0 0 .01a23.221 23.221 0 0 0 37.38 12.03q2.835-2.37 5.759-4.615a23.32 23.32 0 0 1 -8.089-1.205z" fill="#5f6670"/><g fill="#284268"><path d="m40 359.8v29.29a62.993 62.993 0 0 0 57.518 62.7 31.037 31.037 0 0 0 30.6 25.476c17.182-.066 30.882-14.45 30.882-31.628v-74.638a6 6 0 0 0 -12 0v74.81c0 10.336-8.062 19.128-18.4 19.45a19.033 19.033 0 0 1 -19.6-19.08v-145.039c0-10.337 8.062-19.129 18.395-19.45a19.033 19.033 0 0 1 19.605 19.08v28.229a6 6 0 0 0 12 0v-27.669c0-17.178-13.694-31.57-30.871-31.649a31.058 31.058 0 0 0 -30.648 25.476 62.579 62.579 0 0 0 -35.7 15.115 198.014 198.014 0 0 1 -2.668-32.38 195.612 195.612 0 0 1 54.232-135.545 29.655 29.655 0 0 0 2.95.415q1.334.119 2.655.119a29.01 29.01 0 0 0 18.686-6.8 184.694 184.694 0 0 1 236.728 0 29.119 29.119 0 0 0 24.282 6.258 195.61 195.61 0 0 1 54.241 135.554 198.094 198.094 0 0 1 -2.67 32.4 62.644 62.644 0 0 0 -35.735-15.132 30.988 30.988 0 0 0 -61.482 5.609v145.409a31.008 31.008 0 0 0 61.519 5.613 62.962 62.962 0 0 0 57.481-62.705v-29.288a230.735 230.735 0 0 0 -49.948-242.314 29.222 29.222 0 0 0 -10.215-26.244 243.137 243.137 0 0 0 -311.674 0 29.223 29.223 0 0 0 -10.215 26.243 230.739 230.739 0 0 0 -49.948 242.315zm363 86.38a19 19 0 1 1 -38 0v-145.409a19 19 0 1 1 38 0zm-306-138.915v132.421a51.251 51.251 0 0 1 -45-50.6v-31.224a51.25 51.25 0 0 1 45-50.597zm363 81.823a51.251 51.251 0 0 1 -45 50.6v-132.423a51.25 51.25 0 0 1 45 50.6zm-44.478-256.688a29.443 29.443 0 0 0 1.819-2.419 218.784 218.784 0 0 1 50.207 204.619 62.838 62.838 0 0 0 -7.234-13.22 208.594 208.594 0 0 0 -50-184.113 29.221 29.221 0 0 0 5.208-4.867zm-307.664-31.953a231.137 231.137 0 0 1 296.284 0 17.219 17.219 0 0 1 -11.053 30.432 17.221 17.221 0 0 1 -11.028-4.006 196.7 196.7 0 0 0 -252.12 0 17.219 17.219 0 0 1 -22.082-26.426zm-13.2 29.529a29.53 29.53 0 0 0 7.016 7.3 208.595 208.595 0 0 0 -49.991 184.086 62.812 62.812 0 0 0 -7.234 13.226 218.793 218.793 0 0 1 50.21-204.612z"/><path d="m131 302.113a6 6 0 0 0 -12 0v4.778a6 6 0 0 0 12 0z"/><path d="m125 322.713a6 6 0 0 0 -6 6v58.178a6 6 0 0 0 12 0v-58.178a6 6 0 0 0 -6-6z"/></g></svg>