<svg height="512" viewBox="0 0 64 64" width="512" xmlns="http://www.w3.org/2000/svg"><g id="Wrench"><path d="m11.414 45.515-4.083 4.083 1.495 5.576 5.576 1.495 4.083-4.083-1.494-5.577z" fill="none"/><path d="m47.8 26.58-.947-.947h-.001z" fill="none"/><path d="m45.759 24.542 1.093 1.091h.001l-1.413-1.413z" fill="#a7a9ac"/><path d="m60.236 9.421-6.477 6.479-4.95-.707-.707-4.95 6.477-6.477a9.986 9.986 0 0 0 -13.623 9.904 1.933 1.933 0 0 1 -.583 1.472l-4.837 4.837-16.971 16.971-3.579 3.579a1.947 1.947 0 0 1 -1.48.581c-.2-.012-.4-.017-.6-.017a10 10 0 1 0 10 10c0-.2 0-.4-.017-.6a1.947 1.947 0 0 1 .581-1.48l3.579-3.579 11.315-11.313 4.243-4.242a2 2 0 0 0 -2.829 0 4 4 0 0 1 -5.657 0 2 2 0 0 1 0-2.829l4.95-4.95a3 3 0 0 1 4.243 0l2.445 2.442-.319-.322 1.413 1.413 2-2.006a1.933 1.933 0 0 1 1.472-.583 9.986 9.986 0 0 0 9.911-13.623zm-45.836 47.248-5.574-1.495-1.495-5.574 4.083-4.083 5.577 1.494 1.494 5.577z" fill="#006df0"/><path d="m45.759 24.542-2.445-2.442 2.828 2.829z" fill="#a7a9ac"/><path d="m39.778 60.991-1.414-1.414 16.971-16.97 5.656 5.656.009 12.737z" fill="#ed1c24"/><path d="m57.335 44.607-2-2-16.971 16.97 1.414 1.414 1.171.001z" fill="#ab2300"/><rect fill="#ffbcab" height="6" rx="3" transform="matrix(.707 .707 -.707 .707 26.111 -12.472)" width="15" x="20.611" y="22.282"/><rect fill="#ffb19d" height="6" rx="3" transform="matrix(.707 .707 -.707 .707 25.061 -17.008)" width="15" x="25.561" y="18.747"/><path d="m18.485 52.586-4.085 4.083-5.574-1.495-2.991 2.991a10 10 0 0 0 17.072-7.073c0-.2 0-.4-.017-.6a1.947 1.947 0 0 1 .581-1.48l3.579-3.579 11.314-11.312 4.243-4.242a2 2 0 0 0 -2.829 0 4 4 0 0 1 -5.657 0l-17.13 17.13z" fill="#005ece"/><path d="m60.236 9.421-6.477 6.479-4.95-.707-6.332 6.332a2.986 2.986 0 0 1 .837.577l2.445 2.442-.319-.322 1.413 1.413 2-2.006a1.933 1.933 0 0 1 1.472-.583 9.986 9.986 0 0 0 9.911-13.625z" fill="#005ece"/><rect fill="#ffb19d" height="6" rx="3" transform="matrix(.707 .707 -.707 .707 29.282 -8.815)" width="15" x="17.782" y="27.939"/><rect fill="#ffbcab" height="6" rx="3" transform="matrix(.707 .707 -.707 .707 31.747 -4.866)" width="15" x="14.247" y="32.889"/><path d="m53.71 43.79a9.964 9.964 0 0 1 -2.9-6.01l-.72-6.42a8.037 8.037 0 0 0 -2.29-4.78l-.948-.947-1.093-1.091.383.387-2.828-2.829a3 3 0 0 0 -4.243 0l-4.95 4.95a2 2 0 0 0 0 2.829 4 4 0 0 0 5.657 0 2 2 0 0 1 2.829 0l-4.243 4.242-11.314 11.314 12.728 12.728 14.149-14.149z" fill="#ffa791"/></g></svg>